<svg width="149" height="31" viewBox="0 0 149 31" fill="none" xmlns="http://www.w3.org/2000/svg">
<path fill-rule="evenodd" clip-rule="evenodd" d="M59.8546 12.3736H60.7385C67.729 12.3736 69.7176 16.5069 69.7176 19.8096V20.4174C69.7176 23.6592 67.729 27.9344 60.7385 27.9344H59.8546C52.8642 27.9344 50.8755 23.6592 50.8755 20.4174V19.8096C50.8755 16.5272 52.8642 12.3736 59.8546 12.3736ZM65.4189 20.2553V19.9716C65.4189 18.1076 64.515 15.8181 60.2966 15.8181C56.1183 15.8181 55.1742 18.1076 55.1742 19.9716V20.2553C55.1742 22.0788 56.1786 24.4697 60.2966 24.4697C64.4949 24.4697 65.4189 22.0788 65.4189 20.2553Z" fill="#CCFF00"/>
<path d="M39.8154 27.9342H39.494C32.9053 27.9342 30.8363 23.7806 30.8363 20.3969V19.8499C30.8363 16.6486 32.7647 12.4342 39.5744 12.4342H40.2574C46.7657 12.4342 48.8348 15.2911 48.8348 17.7832V17.8237H44.5561L44.546 17.7993C44.3708 17.3755 43.7355 15.8381 39.936 15.8381C36.2599 15.8381 35.135 17.9251 35.135 19.9512V20.2146C35.135 22.18 36.3805 24.5303 40.0766 24.5303C43.612 24.5303 44.3954 22.6257 44.4557 22.18H40.398V19.4852H49.0156V27.7113H45.7212C45.6609 27.1643 45.44 26.1107 45.219 25.6244C44.8976 26.0499 43.3308 27.9342 39.8154 27.9342Z" fill="#CCFF00"/>
<path fill-rule="evenodd" clip-rule="evenodd" d="M88.6429 24.5912C88.6429 22.3827 87.4175 21.1468 85.3887 20.6807C87.2568 20.2553 88.5424 18.9788 88.5424 17.0945V16.8919C88.5424 15.2507 87.8996 12.8598 82.2148 12.8598H72.151V27.9343H76.289V22.8082H81.6725C83.7616 22.8082 84.4646 23.6997 84.4646 25.6448V26.8807C84.4646 27.5494 84.545 27.833 84.6053 27.9343H88.8839V27.833C88.7433 27.5899 88.6429 27.286 88.6429 26.1513V24.5912ZM76.289 19.384V16.1827H82.0541C83.7415 16.1827 84.2035 16.8716 84.2035 17.7428V17.7834C84.2035 18.6546 83.7415 19.384 82.0541 19.384H76.289Z" fill="#CCFF00"/>
<path d="M95.4552 12.8598V27.9343H91.3172V12.8598H95.4552Z" fill="#CCFF00"/>
<path d="M103.174 12.8598H99.036V27.9343H112.314V24.3886H103.174V12.8598Z" fill="#CCFF00"/>
<path d="M114.174 12.8598H118.312V24.3886H127.452V27.9343H114.174V12.8598Z" fill="#CCFF00"/>
<path fill-rule="evenodd" clip-rule="evenodd" d="M142.176 25.1383L143.402 27.9343H147.841L140.911 12.8598H135.367L128.738 27.9343H132.896L134.101 25.1383H142.176ZM138.079 15.899L140.79 22.0383H135.447L138.079 15.899Z" fill="#CCFF00"/>
<path fill-rule="evenodd" clip-rule="evenodd" d="M11.9773 4.7305L11.39 9.78243L10.8159 10.8962L9.92825 11.1617L8.40238 8.44237L7.89098 2.23344L5.40099 9.15707L5.31222 13.8742L3.37153 10.326L1.27319 17.7911L2.18894 22.599L1.67266 23.93L9.4844 30.9968L15.8911 31L23.7683 23.8571L23.1923 22.647L24.1787 18.2167L22.3006 10.3196L19.797 13.5797L19.7741 13.5567L19.7513 13.5338L20.2088 12.1945L18.6663 5.14592L10.6828 7.62939e-06L11.9773 4.7305ZM12.5494 16.7061H12.847L17.3688 14.912L19.0307 18.7341L16.1989 19.8775L18.8496 23.4475L18.4501 24.1307L15.5813 24.9664L12.7123 25.8023L6.9755 24.121L6.50511 23.5003L9.17255 19.8853L6.33707 18.7052L8.03479 14.9193L12.5494 16.7061ZM8.28601 17.6831L11.7036 18.8055L11.9328 18.2556L8.65999 16.7954H8.61454H8.56901L8.28601 17.6831ZM13.3696 18.2556L13.5678 18.8055L17.0298 17.6917L16.8123 16.7954L16.7436 16.8013L16.6748 16.8072L13.3696 18.2556ZM10.8802 20.6243L11.4817 21.5232V21.8846L12.3764 22.3409L12.325 20.7845L10.9698 20.2795L10.8802 20.6243ZM13.0352 20.8027L12.984 22.3272L13.9229 21.9115L13.9822 21.408L14.567 20.6816L14.384 20.2795L13.0352 20.8027ZM12.7216 26.9224L17.7141 25.4499L17.7402 25.4778L17.7663 25.5058L15.8758 27.6804L9.55053 27.6945L7.90181 25.4307L12.7216 26.9224Z" fill="#CCFF00"/>
</svg>
